<?xml version="1.0" encoding="UTF-8"?>
<svg width="30px" height="30px" viewBox="0 0 30 30" version="1.1" xmlns="http://www.w3.org/2000/svg" xmlns:xlink="http://www.w3.org/1999/xlink">
    <title>fb</title>
    <g id="Symbols" stroke="none" stroke-width="1" fill="none" fill-rule="evenodd">
        <g id="section/footer" transform="translate(-1290.000000, -65.000000)" fill="#000000" fill-rule="nonzero">
            <g id="fb" transform="translate(1290.000000, 65.000000)">
                <path d="M29.8666667,14.9333333 C29.8666667,6.685 23.1816667,0 14.9333333,0 C6.685,0 0,6.685 0,14.9333333 C0,23.1816667 6.685,29.8666667 14.9333333,29.8666667 C15.0208333,29.8666667 15.1083333,29.8666667 15.1958333,29.8608333 L15.1958333,18.2408333 L11.9875,18.2408333 L11.9875,14.5016667 L15.1958333,14.5016667 L15.1958333,11.7483333 C15.1958333,8.5575 17.1441667,6.81916667 19.9908333,6.81916667 C21.3558333,6.81916667 22.5283333,6.91833333 22.8666667,6.965 L22.8666667,10.3016667 L20.9066667,10.3016667 C19.3608333,10.3016667 19.0575,11.0366667 19.0575,12.1158333 L19.0575,14.4958333 L22.7616667,14.4958333 L22.2775,18.235 L19.0575,18.235 L19.0575,29.2891667 C25.2991667,27.4983333 29.8666667,21.7525 29.8666667,14.9333333 Z" id="Path"></path>
            </g>
        </g>
    </g>
</svg>