<?xml version="1.0" encoding="UTF-8"?>
<svg width="30px" height="30px" viewBox="0 0 30 30" version="1.1" xmlns="http://www.w3.org/2000/svg" xmlns:xlink="http://www.w3.org/1999/xlink">
    <title>ig</title>
    <g id="Symbols" stroke="none" stroke-width="1" fill="none" fill-rule="evenodd">
        <g id="section/footer" transform="translate(-1374.000000, -65.000000)" fill="#000000" fill-rule="nonzero">
            <g id="ig" transform="translate(1374.000000, 65.000000)">
                <path d="M17.7916667,14.9333333 C17.7916667,16.5119792 16.5119792,17.7916667 14.9333333,17.7916667 C13.3546875,17.7916667 12.075,16.5119792 12.075,14.9333333 C12.075,13.3546875 13.3546875,12.075 14.9333333,12.075 C16.5119792,12.075 17.7916667,13.3546875 17.7916667,14.9333333 Z" id="Path"></path>
                <path d="M21.6179688,9.8761068 C21.4805664,9.50377604 21.2613607,9.16676431 20.9765299,8.89013673 C20.6999024,8.60530598 20.3631185,8.38610028 19.9905599,8.24869792 C19.6884115,8.13134764 19.2345052,7.99166667 18.3984701,7.95361327 C17.4940756,7.91236979 17.2229167,7.90348306 14.9333333,7.90348306 C12.6435222,7.90348306 12.3723633,7.91214194 11.4681966,7.95338542 C10.6321615,7.99166667 10.1780274,8.13134764 9.8761068,8.24869792 C9.50354819,8.38610028 9.16653646,8.60530598 8.89013673,8.89013673 C8.60530598,9.16676431 8.38610028,9.50354819 8.24847007,9.8761068 C8.13111979,10.1782552 7.99143882,10.6323893 7.95338542,11.4684245 C7.91214194,12.3725911 7.90325521,12.64375 7.90325521,14.9335612 C7.90325521,17.2231445 7.91214194,17.4943034 7.95338542,18.3986979 C7.99143882,19.2347331 8.13111979,19.6886393 8.24847007,19.9907878 C8.38610028,20.3633464 8.60507813,20.7001302 8.88990888,20.9767578 C9.16653646,21.2615885 9.50332028,21.4807943 9.87587889,21.6181966 C10.1780274,21.7357747 10.6321615,21.8754557 11.4681966,21.9135091 C12.3723633,21.9547526 12.6432943,21.9634115 14.9331055,21.9634115 C17.2231445,21.9634115 17.4943034,21.9547526 18.3982422,21.9135091 C19.2342774,21.8754557 19.6884115,21.7357747 19.9905599,21.6181966 C20.7384115,21.3297201 21.3294922,20.7386393 21.6179688,19.9907878 C21.735319,19.6886393 21.875,19.2347331 21.9132813,18.3986979 C21.9545247,17.4943034 21.9631836,17.2231445 21.9631836,14.9335612 C21.9631836,12.64375 21.9545247,12.3725911 21.9132813,11.4684245 C21.8752279,10.6323893 21.7355469,10.1782552 21.6179688,9.8761068 L21.6179688,9.8761068 Z M14.9333333,19.3365885 C12.5013347,19.3365885 10.5298503,17.365332 10.5298503,14.9333333 C10.5298503,12.5013347 12.5013347,10.5300781 14.9333333,10.5300781 C17.3651042,10.5300781 19.3365885,12.5013347 19.3365885,14.9333333 C19.3365885,17.365332 17.3651042,19.3365885 14.9333333,19.3365885 Z M19.5106771,11.385026 C18.9423828,11.385026 18.4816406,10.9242839 18.4816406,10.3559896 C18.4816406,9.78769528 18.9423828,9.32695313 19.5106771,9.32695313 C20.0789714,9.32695313 20.5397135,9.78769528 20.5397135,10.3559896 C20.5394857,10.9242839 20.0789714,11.385026 19.5106771,11.385026 Z" id="Shape"></path>
                <path d="M14.9333333,0 C6.68714194,0 0,6.68714194 0,14.9333333 C0,23.1795247 6.68714194,29.8666667 14.9333333,29.8666667 C23.1795247,29.8666667 29.8666667,23.1795247 29.8666667,14.9333333 C29.8666667,6.68714194 23.1795247,0 14.9333333,0 Z M23.4566081,18.4686524 C23.4151367,19.3814778 23.269987,20.0046875 23.0580729,20.5501953 C22.6125976,21.7020508 21.7020508,22.6125976 20.5501953,23.0580729 C20.0049154,23.2699869 19.3814779,23.4149089 18.4688802,23.4566081 C17.5544597,23.4983073 17.2623372,23.5083333 14.9335612,23.5083333 C12.6045573,23.5083333 12.3126628,23.4983073 11.3980143,23.4566081 C10.4854167,23.4149089 9.86197917,23.2699869 9.31669923,23.0580729 C8.7443034,22.8427409 8.22613931,22.5052735 7.79775389,22.0689128 C7.36162111,21.6407552 7.02415362,21.1223633 6.8088216,20.5501953 C6.59690757,20.0049153 6.45175778,19.3814778 6.41028646,18.4688802 C6.36813153,17.5542318 6.35833333,17.2621094 6.35833333,14.9333333 C6.35833333,12.6045573 6.36813153,12.3124349 6.41005861,11.3980143 C6.45152993,10.4851888 6.59645181,9.86197917 6.8083659,9.31647138 C7.02369792,8.7443034 7.3613932,8.22591146 7.79775389,7.79775389 C8.22591146,7.3613932 8.7443034,7.02392577 9.31647138,6.80859375 C9.86197917,6.59667972 10.4851888,6.45175778 11.3980143,6.41005861 C12.3124349,6.36835938 12.6045573,6.35833333 14.9333333,6.35833333 C17.2621094,6.35833333 17.5542318,6.36835938 18.4686524,6.41028646 C19.3814779,6.45175778 20.0046875,6.59667972 20.5501953,6.8083659 C21.1223633,7.02369792 21.6407552,7.3613932 22.0691406,7.79775389 C22.5052735,8.22613931 22.8429688,8.7443034 23.0580729,9.31647138 C23.2702149,9.86197917 23.4151367,10.4851888 23.456836,11.3980143 C23.4985351,12.3124349 23.5083333,12.6045573 23.5083333,14.9333333 C23.5083333,17.2621094 23.4985351,17.5542318 23.4566081,18.4686524 L23.4566081,18.4686524 Z" id="Shape"></path>
            </g>
        </g>
    </g>
</svg>