<?xml version="1.0" encoding="UTF-8"?>
<svg width="358" height="27" viewBox="0 0 358 27" version="1.1" xmlns="http://www.w3.org/2000/svg" xmlns:xlink="http://www.w3.org/1999/xlink">
    <title>UA</title>
    <g>
        <path fill="currentColor" d="m3.43537,23.84609c-1.9,-1.9 -2.8,-4.6 -2.8,-8.1l0,-15l5.5,0l0,15.3c0,2 0.5,3.6 1.4,4.6c0.9,1.1 2.3,1.6 4,1.6c1.8,0 3.1,-0.5 4.1,-1.6c0.9,-1.1 1.4,-2.6 1.4,-4.6l0,-15.3l5.6,0l0,15c0,3.5 -0.9,6.2 -2.8,8.1c-1.9,1.9 -4.6,2.8 -8.2,2.8c-3.6,0 -6.4,-1 -8.2,-2.8z"/>
        <path fill="currentColor" d="m27.53537,26.24609l0,-25.5l5.7,0l0,21l11.4,0l0,4.6l-17.1,0l0,-0.1z"/>
        <path fill="currentColor" d="m53.83537,26.24609l0,-21l-8,0l0,-4.5l21.7,0l0,4.6l-8,0l0,21l-5.7,0l0,-0.1z"/>
        <path fill="currentColor" d="m92.73537,26.24609l-6.2,0l-4.4,-8.2c-0.4,-0.6 -0.8,-1.1 -1.3,-1.4c-0.5,-0.3 -1.1,-0.4 -1.9,-0.4l-2.8,0l0,9.9l-5.6,0l0,-25.4l11.7,0c3,0 5.3,0.7 6.8,2c1.5,1.3 2.3,3.2 2.3,5.7c0,1.9 -0.5,3.6 -1.6,4.9c-1.1,1.3 -2.6,2.2 -4.6,2.6c1.3,0.3 2.5,1.3 3.4,2.9l4.2,7.4zm-7.8,-15c0.7,-0.6 1.1,-1.5 1.1,-2.7c0,-1.2 -0.4,-2.1 -1.1,-2.7c-0.7,-0.6 -1.9,-0.8 -3.5,-0.8l-5.4,0l0,7l5.4,0c1.6,0 2.8,-0.3 3.5,-0.8z"/>
        <path fill="currentColor" d="m115.43537,26.24609l-2.4,-5.7l-11.9,0l-2.4,5.7l-5.7,0l11.7,-25.5l4.5,0l11.7,25.6l-5.5,0l0,-0.1zm-12.5,-9.9l8.2,0l-4.1,-9.6l-4.1,9.6z"/>
        <path fill="currentColor" d="m127.33537,20.24609l0,-4.3l11.8,0l0,4.3l-11.8,0z"/>
        
        <g id="svg_7">
            <path fill="currentColor" d="m138.93537,0.74609l5.3,0l11.7,25.6l-5.9,0l-11.1,-25.6z"/>
            <path fill="currentColor" d="m180.33537,26.24609l-6.2,0l-4.4,-8.2c-0.4,-0.6 -0.8,-1.1 -1.3,-1.4c-0.5,-0.3 -1.1,-0.4 -1.9,-0.4l-2.8,0l0,9.9l-5.6,0l0,-25.4l11.7,0c3,0 5.3,0.7 6.8,2c1.5,1.3 2.3,3.2 2.3,5.7c0,1.9 -0.5,3.6 -1.6,4.9c-1.1,1.3 -2.6,2.2 -4.6,2.6c1.3,0.3 2.5,1.3 3.4,2.9l4.2,7.4zm-7.7,-15c0.7,-0.6 1.1,-1.5 1.1,-2.7c0,-1.2 -0.4,-2.1 -1.1,-2.7c-0.7,-0.6 -1.9,-0.8 -3.5,-0.8l-5.5,0l0,7l5.4,0c1.7,0 2.8,-0.3 3.6,-0.8z"/>
            <path fill="currentColor" d="m188.83537,24.94609c-1.9,-1.1 -3.4,-2.6 -4.4,-4.6c-1,-2 -1.5,-4.3 -1.5,-6.9s0.5,-4.9 1.5,-6.9c1,-2 2.5,-3.5 4.4,-4.6c1.9,-1.1 4.2,-1.6 6.8,-1.6c1.7,0 3.3,0.3 4.9,0.8c1.5,0.5 2.8,1.2 3.8,2.2l-1.8,4c-1.1,-0.8 -2.2,-1.5 -3.3,-1.8c-1.1,-0.4 -2.2,-0.6 -3.4,-0.6c-2.3,0 -4,0.7 -5.2,2.2c-1.2,1.5 -1.8,3.6 -1.8,6.4c0,2.8 0.6,4.9 1.8,6.4s3,2.2 5.2,2.2c1.2,0 2.3,-0.2 3.4,-0.6c1.1,-0.4 2.2,-1 3.3,-1.8l1.8,4c-1,0.9 -2.3,1.6 -3.8,2.2c-1.5,0.5 -3.2,0.8 -4.9,0.8c-2.6,-0.1 -4.9,-0.7 -6.8,-1.8z"/>
            <path fill="currentColor" d="m225.53537,0.74609l5.5,0l0,25.6l-5.5,0l0,-10.8l-11.8,0l0,10.7l-5.5,0l0,-25.5l5.5,0l0,10.3l11.8,0l0,-10.3z"/>
            <path fill="currentColor" d="m236.13537,26.24609l0,-25.5l5.7,0l0,25.6l-5.7,0l0,-0.1z"/>
            <path fill="currentColor" d="m252.73537,26.24609l0,-21l-8,0l0,-4.5l21.7,0l0,4.6l-8,0l0,21l-5.7,0l0,-0.1z"/>
            <path fill="currentColor" d="m269.43537,26.24609l0,-25.5l17.6,0l0,4.4l-12.1,0l0,6l11.4,0l0,4.4l-11.4,0l0,6.4l12.1,0l0,4.4l-17.6,0l0,-0.1z"/>
            <path fill="currentColor" d="m296.13537,24.94609c-1.9,-1.1 -3.4,-2.6 -4.4,-4.6c-1,-2 -1.5,-4.3 -1.5,-6.9s0.5,-4.9 1.5,-6.9c1,-2 2.5,-3.5 4.4,-4.6c1.9,-1.1 4.2,-1.6 6.8,-1.6c1.7,0 3.3,0.3 4.9,0.8c1.5,0.5 2.8,1.2 3.8,2.2l-1.8,4c-1.1,-0.8 -2.2,-1.5 -3.3,-1.8c-1.1,-0.4 -2.2,-0.6 -3.4,-0.6c-2.3,0 -4,0.7 -5.2,2.2c-1.2,1.5 -1.8,3.6 -1.8,6.4c0,2.8 0.6,4.9 1.8,6.4s3,2.2 5.2,2.2c1.2,0 2.3,-0.2 3.4,-0.6c1.1,-0.4 2.2,-1 3.3,-1.8l1.8,4c-1,0.9 -2.3,1.6 -3.8,2.2c-1.5,0.5 -3.2,0.8 -4.9,0.8c-2.6,-0.1 -4.9,-0.7 -6.8,-1.8z"/>
            <path fill="currentColor" d="m321.43537,26.24609l0,-21l-8,0l0,-4.5l21.7,0l0,4.6l-8,0l0,21l-5.7,0l0,-0.1z"/>
            <path fill="currentColor" d="m341.43537,25.84609c-1.8,-0.5 -3.3,-1.2 -4.5,-2.2l1.8,-4c2.5,1.7 5.2,2.6 8.3,2.6c1.6,0 2.8,-0.3 3.7,-0.8c0.9,-0.5 1.3,-1.2 1.3,-2.2c0,-0.8 -0.4,-1.5 -1.2,-1.9c-0.8,-0.5 -2.2,-0.9 -4.2,-1.3c-2.2,-0.5 -4,-1 -5.4,-1.7c-1.3,-0.7 -2.3,-1.5 -2.9,-2.4c-0.6,-1 -0.9,-2.1 -0.9,-3.5c0,-1.5 0.4,-2.9 1.3,-4.1c0.9,-1.2 2.1,-2.2 3.6,-2.8c1.5,-0.7 3.3,-1 5.4,-1c1.8,0 3.6,0.3 5.2,0.8c1.7,0.5 3,1.2 4,2.1l-1.8,4c-2.3,-1.7 -4.8,-2.6 -7.4,-2.6c-1.5,0 -2.6,0.3 -3.5,0.9c-0.8,0.6 -1.3,1.3 -1.3,2.3c0,0.6 0.2,1.1 0.5,1.4c0.3,0.4 0.9,0.7 1.6,1c0.8,0.3 1.8,0.6 3.2,0.9c3.3,0.7 5.7,1.7 7.1,2.8c1.4,1.1 2.2,2.7 2.2,4.7c0,2.4 -0.9,4.3 -2.8,5.7c-1.9,1.4 -4.5,2.1 -7.8,2.1c-1.9,0 -3.7,-0.3 -5.5,-0.8z"/>
        </g>
    </g>
</svg>