<?xml version="1.0" encoding="utf-8"?>
<!-- Generator: Adobe Illustrator 25.2.3, SVG Export Plug-In . SVG Version: 6.00 Build 0)  -->
<svg version="1.1" id="Warstwa_1" xmlns="http://www.w3.org/2000/svg" xmlns:xlink="http://www.w3.org/1999/xlink" x="0px" y="0px"
	 viewBox="0 0 358 27" style="enable-background:new 0 0 358 27;" xml:space="preserve">
<path d="M3.4,23.9c-1.9-1.8-2.8-4.6-2.8-8.1v-15h5.5v15.3c0,2,0.5,3.6,1.4,4.6c0.9,1.1,2.3,1.6,4,1.6c1.8,0,3.1-0.5,4.1-1.6
	c0.9-1.1,1.4-2.6,1.4-4.6V0.8h5.5v15c0,3.5-0.9,6.2-2.8,8.1c-1.9,1.9-4.6,2.8-8.2,2.8C8,26.7,5.3,25.8,3.4,23.9z"/>
<path d="M27.6,26.4V0.8h5.7v21h11.4v4.6H27.6z"/>
<path d="M53.9,26.4v-21h-8V0.8h21.7v4.6h-8v21H53.9z"/>
<path d="M92.7,26.4h-6.2l-4.4-8.2c-0.4-0.6-0.8-1.1-1.3-1.4c-0.5-0.3-1.1-0.4-1.9-0.4h-2.8v9.9h-5.6V0.8h11.7c3,0,5.3,0.7,6.8,2
	c1.5,1.3,2.3,3.2,2.3,5.7c0,1.9-0.5,3.6-1.6,4.9c-1.1,1.3-2.6,2.2-4.6,2.6c1.3,0.3,2.5,1.3,3.4,2.9L92.7,26.4z M85,11.3
	c0.7-0.6,1.1-1.5,1.1-2.7c0-1.2-0.4-2.1-1.1-2.7c-0.7-0.6-1.9-0.8-3.5-0.8h-5.4v7h5.4C83.1,12.2,84.2,11.9,85,11.3z"/>
<path d="M115.5,26.4l-2.4-5.7h-11.9l-2.4,5.7H93l11.7-25.6h4.5l11.7,25.6H115.5z M103,16.4h8.2l-4.1-9.6L103,16.4z"/>
<path d="M127.4,20.3v-4.3h11.8v4.3H127.4z"/>
<g>
	<path d="M138.4,0.8h5.9l11.7,25.6h-5.9L138.4,0.8z"/>
	<path d="M180.4,26.4h-6.2l-4.4-8.2c-0.4-0.6-0.8-1.1-1.3-1.4c-0.5-0.3-1.1-0.4-1.9-0.4h-2.8v9.9h-5.6V0.8h11.7c3,0,5.3,0.7,6.8,2
		c1.5,1.3,2.3,3.2,2.3,5.7c0,1.9-0.5,3.6-1.6,4.9c-1.1,1.3-2.6,2.2-4.6,2.6c1.3,0.3,2.5,1.3,3.4,2.9L180.4,26.4z M172.6,11.3
		c0.7-0.6,1.1-1.5,1.1-2.7c0-1.2-0.4-2.1-1.1-2.7c-0.7-0.6-1.9-0.8-3.5-0.8h-5.4v7h5.4C170.7,12.2,171.9,11.9,172.6,11.3z"/>
	<path d="M188.9,25.1c-1.9-1.1-3.4-2.6-4.4-4.6c-1-2-1.5-4.3-1.5-6.9s0.5-4.9,1.5-6.9c1-2,2.5-3.5,4.4-4.6c1.9-1.1,4.2-1.6,6.8-1.6
		c1.7,0,3.3,0.3,4.9,0.8c1.5,0.5,2.8,1.2,3.8,2.2l-1.8,4c-1.1-0.8-2.2-1.5-3.3-1.8c-1.1-0.4-2.2-0.6-3.4-0.6c-2.3,0-4,0.7-5.2,2.2
		c-1.2,1.5-1.8,3.6-1.8,6.4c0,2.8,0.6,4.9,1.8,6.4c1.2,1.5,3,2.2,5.2,2.2c1.2,0,2.3-0.2,3.4-0.6c1.1-0.4,2.2-1,3.3-1.8l1.8,4
		c-1,0.9-2.3,1.6-3.8,2.2c-1.5,0.5-3.2,0.8-4.9,0.8C193,26.7,190.8,26.2,188.9,25.1z"/>
	<path d="M225.5,0.8h5.5v25.6h-5.5V15.6h-11.8v10.7h-5.5V0.8h5.5v10.3h11.8V0.8z"/>
	<path d="M236.2,26.4V0.8h5.7v25.6H236.2z"/>
	<path d="M252.8,26.4v-21h-8V0.8h21.7v4.6h-8v21H252.8z"/>
	<path d="M269.4,26.4V0.8h17.6v4.4H275v6h11.4v4.4H275V22h12.1v4.4H269.4z"/>
	<path d="M296.2,25.1c-1.9-1.1-3.4-2.6-4.4-4.6c-1-2-1.5-4.3-1.5-6.9s0.5-4.9,1.5-6.9c1-2,2.5-3.5,4.4-4.6c1.9-1.1,4.2-1.6,6.8-1.6
		c1.7,0,3.3,0.3,4.9,0.8c1.5,0.5,2.8,1.2,3.8,2.2l-1.8,4c-1.1-0.8-2.2-1.5-3.3-1.8c-1.1-0.4-2.2-0.6-3.4-0.6c-2.3,0-4,0.7-5.2,2.2
		c-1.2,1.5-1.8,3.6-1.8,6.4c0,2.8,0.6,4.9,1.8,6.4c1.2,1.5,3,2.2,5.2,2.2c1.2,0,2.3-0.2,3.4-0.6c1.1-0.4,2.2-1,3.3-1.8l1.8,4
		c-1,0.9-2.3,1.6-3.8,2.2c-1.5,0.5-3.2,0.8-4.9,0.8C300.4,26.7,298.1,26.2,296.2,25.1z"/>
	<path d="M321.4,26.4v-21h-8V0.8h21.7v4.6h-8v21H321.4z"/>
	<path d="M341.5,25.9c-1.8-0.5-3.3-1.2-4.5-2.2l1.8-4c2.5,1.7,5.2,2.6,8.3,2.6c1.6,0,2.8-0.3,3.7-0.8c0.9-0.5,1.3-1.2,1.3-2.2
		c0-0.8-0.4-1.5-1.2-1.9c-0.8-0.5-2.2-0.9-4.2-1.3c-2.2-0.5-4-1-5.4-1.7c-1.3-0.7-2.3-1.5-2.9-2.4c-0.6-1-0.9-2.1-0.9-3.5
		c0-1.5,0.4-2.9,1.3-4.1c0.9-1.2,2.1-2.2,3.6-2.8s3.3-1,5.4-1c1.8,0,3.6,0.3,5.2,0.8c1.7,0.5,3,1.2,4,2.1l-1.8,4
		c-2.3-1.7-4.8-2.6-7.4-2.6c-1.5,0-2.6,0.3-3.5,0.9c-0.8,0.6-1.3,1.3-1.3,2.3c0,0.6,0.2,1.1,0.5,1.4c0.3,0.4,0.9,0.7,1.6,1
		c0.8,0.3,1.8,0.6,3.2,0.9c3.3,0.7,5.7,1.7,7.1,2.8c1.4,1.1,2.2,2.7,2.2,4.7c0,2.4-0.9,4.3-2.8,5.7c-1.9,1.4-4.5,2.1-7.8,2.1
		C345.1,26.7,343.2,26.4,341.5,25.9z"/>
</g>
</svg>
